HIERARCHY
ROOT hip
{
  OFFSET 0 0 0
  CHANNELS 6 Xposition Yposition Zposition Zrotation Yrotation Xrotation
  JOINT abdomen
  {
    OFFSET 0 20.6881 -0.73152
    CHANNELS 3 Zrotation Xrotation Yrotation
    JOINT chest
    {
      OFFSET 0 11.7043 -0.48768
      CHANNELS 3 Zrotation Xrotation Yrotation
      JOINT neck
      {
        OFFSET 0 22.1894 -2.19456
        CHANNELS 3 Zrotation Xrotation Yrotation
        JOINT head
        {
          OFFSET -0.24384 7.07133 1.2192
          CHANNELS 3 Zrotation Xrotation Yrotation
          JOINT leftEye
          {
            OFFSET 4.14528 8.04674 8.04672
            CHANNELS 3 Zrotation Xrotation Yrotation
            End Site
            {
              OFFSET 1 0 0
            }
          }
          JOINT rightEye
          {
            OFFSET -3.6576 8.04674 8.04672
            CHANNELS 3 Zrotation Xrotation Yrotation
            End Site
            {
              OFFSET 1 0 0
            }
          }
        }
      }
      JOINT rCollar
      {
        OFFSET -2.68224 19.2634 -4.8768
        CHANNELS 3 Zrotation Xrotation Yrotation
        JOINT rShldr
        {
          OFFSET -8.77824 -1.95073 1.46304
          CHANNELS 3 Zrotation Xrotation Yrotation
          JOINT rForeArm
          {
            OFFSET -28.1742 -1.7115 0.48768
            CHANNELS 3 Zrotation Xrotation Yrotation
            JOINT rHand
            {
              OFFSET -22.5879 0.773209 7.07136
              CHANNELS 3 Zrotation Xrotation Yrotation
              JOINT rThumb1
              {
                OFFSET -1.2192 -0.487915 3.41376
                CHANNELS 3 Zrotation Xrotation Yrotation
                JOINT rThumb2
                {
                  OFFSET -3.37035 -0.52449 3.41376
                  CHANNELS 3 Zrotation Xrotation Yrotation
                  End Site
                  {
                    OFFSET -1.78271 -1.18214 1.43049
                  }
                }
              }
              JOINT rIndex1
              {
                OFFSET -7.75947 0.938293 5.60832
                CHANNELS 3 Zrotation Xrotation Yrotation
                JOINT rIndex2
                {
                  OFFSET -2.54057 -0.884171 1.56538
                  CHANNELS 3 Zrotation Xrotation Yrotation
                  End Site
                  {
                    OFFSET -1.62519 -0.234802 1.16502
                  }
                }
              }
              JOINT rMid1
              {
                OFFSET -8.24714 1.18213 3.41376
                CHANNELS 3 Zrotation Xrotation Yrotation
                JOINT rMid2
                {
                  OFFSET -3.10165 -0.590103 1.0647
                  CHANNELS 3 Zrotation Xrotation Yrotation
                  End Site
                  {
                    OFFSET -2.48547 -0.328903 0.83742
                  }
                }
              }
              JOINT rRing1
              {
                OFFSET -8.82822 0.546677 1.51678
                CHANNELS 3 Zrotation Xrotation Yrotation
                JOINT rRing2
                {
                  OFFSET -2.60934 -0.819778 -0.0198488
                  CHANNELS 3 Zrotation Xrotation Yrotation
                  End Site
                  {
                    OFFSET -2.33842 -0.294052 0.168128
                  }
                }
              }
              JOINT rPinky1
              {
                OFFSET -8.27202 -0.0477905 -0.4584
                CHANNELS 3 Zrotation Xrotation Yrotation
                JOINT rPinky2
                {
                  OFFSET -1.82734 -0.647385 -0.700984
                  CHANNELS 3 Zrotation Xrotation Yrotation
                  End Site
                  {
                    OFFSET -1.69225 -0.51767 -0.607171
                  }
                }
              }
            }
          }
        }
      }
      JOINT lCollar
      {
        OFFSET 2.68224 19.2634 -4.8768
        CHANNELS 3 Zrotation Xrotation Yrotation
        JOINT lShldr
        {
          OFFSET 8.77824 -1.95073 1.46304
          CHANNELS 3 Zrotation Xrotation Yrotation
          JOINT lForeArm
          {
            OFFSET 28.1742 -1.7115 0.48768
            CHANNELS 3 Zrotation Xrotation Yrotation
            JOINT lHand
            {
              OFFSET 22.5879 0.773209 7.07136
              CHANNELS 3 Zrotation Xrotation Yrotation
              JOINT lThumb1
              {
                OFFSET 1.2192 -0.487915 3.41376
                CHANNELS 3 Zrotation Xrotation Yrotation
                JOINT lThumb2
                {
                  OFFSET 3.37035 -0.52449 3.41376
                  CHANNELS 3 Zrotation Xrotation Yrotation
                  End Site
                  {
                    OFFSET 1.78271 -1.18214 1.43049
                  }
                }
              }
              JOINT lIndex1
              {
                OFFSET 7.75947 0.938293 5.60832
                CHANNELS 3 Zrotation Xrotation Yrotation
                JOINT lIndex2
                {
                  OFFSET 2.54057 -0.884171 1.56538
                  CHANNELS 3 Zrotation Xrotation Yrotation
                  End Site
                  {
                    OFFSET 1.62519 -0.234802 1.16502
                  }
                }
              }
              JOINT lMid1
              {
                OFFSET 8.24714 1.18213 3.41376
                CHANNELS 3 Zrotation Xrotation Yrotation
                JOINT lMid2
                {
                  OFFSET 3.10165 -0.590103 1.0647
                  CHANNELS 3 Zrotation Xrotation Yrotation
                  End Site
                  {
                    OFFSET 2.48547 -0.328903 0.83742
                  }
                }
              }
              JOINT lRing1
              {
                OFFSET 8.82822 0.546677 1.51678
                CHANNELS 3 Zrotation Xrotation Yrotation
                JOINT lRing2
                {
                  OFFSET 2.60934 -0.819778 -0.0198488
                  CHANNELS 3 Zrotation Xrotation Yrotation
                  End Site
                  {
                    OFFSET 2.33842 -0.294052 0.168128
                  }
                }
              }
              JOINT lPinky1
              {
                OFFSET 8.27202 -0.0477905 -0.4584
                CHANNELS 3 Zrotation Xrotation Yrotation
                JOINT lPinky2
                {
                  OFFSET 1.82734 -0.647385 -0.700984
                  CHANNELS 3 Zrotation Xrotation Yrotation
                  End Site
                  {
                    OFFSET 1.69225 -0.51767 -0.607171
                  }
                }
              }
            }
          }
        }
      }
    }
  }
  JOINT rButtock
  {
    OFFSET -8.77824 4.35084 1.2192
    CHANNELS 3 Zrotation Xrotation Yrotation
    JOINT rThigh
    {
      OFFSET 0 -1.70687 -2.19456
      CHANNELS 3 Zrotation Xrotation Yrotation
      JOINT rShin
      {
        OFFSET 0 -36.8199 0.73152
        CHANNELS 3 Zrotation Xrotation Yrotation
        JOINT rFoot
        {
          OFFSET 0.73152 -45.1104 -5.12064
          CHANNELS 3 Zrotation Xrotation Yrotation
          End Site
          {
            OFFSET -1.1221 -3.69964 12.103
          }
        }
      }
    }
  }
  JOINT lButtock
  {
    OFFSET 8.77824 4.35084 1.2192
    CHANNELS 3 Zrotation Xrotation Yrotation
    JOINT lThigh
    {
      OFFSET 0 -1.70687 -2.19456
      CHANNELS 3 Zrotation Xrotation Yrotation
      JOINT lShin
      {
        OFFSET 0 -36.8199 0.73152
        CHANNELS 3 Zrotation Xrotation Yrotation
        JOINT lFoot
        {
          OFFSET -0.73152 -45.1104 -5.12064
          CHANNELS 3 Zrotation Xrotation Yrotation
          End Site
          {
            OFFSET 1.1221 -3.69964 12.103
          }
        }
      }
    }
  }
}
MOTION
Frames:	7
Frame Time:	0.00833333
38.6011 20.761 34.8276 186.33 -10.1583 145.217 -22.5679 50.4118 21.6306 -5.33047 -0.00781592 -1.15964 -9.85778 8.15142 -9.66109 22.3477 -37.916 -12.9982 -0.0 0.0 0.0 -0.0 0.0 0.0 -2.96357e-13 2.58069e-13 -2.42486e-14 41.891 35.5922 32.3066 -25.2494 -21.6421 53.8437 -0.287929 15.0974 2.17282 -8.2245e-10 -4.08064e-09 8.07667e-10 -1.41674e-09 -7.07272e-09 1.40798e-09 -8.22441e-10 -4.08063e-09 8.07651e-10 7.73091 5.47488 0.417314 -8.22452e-10 -4.08063e-09 8.07662e-10 2.90554 0.965183 0.102902 -8.22449e-10 -4.08064e-09 8.07662e-10 10.2786 0.731801 0.0259123 -8.22453e-10 -4.08064e-09 8.07665e-10 2.22167 -0.733487 -0.20892 -2.96469e-13 2.581e-13 -2.43814e-14 -16.0869 31.6325 -38.5201 27.8959 -30.0253 -67.2917 0.0883487 8.46377 -1.19827 3.92158e-09 -1.03127e-07 -1.79385e-09 6.76676e-09 -1.77392e-07 -3.12624e-09 3.92158e-09 -1.03127e-07 -1.79385e-09 -7.73091 5.47488 -0.417314 3.92158e-09 -1.03127e-07 -1.79385e-09 -2.90554 0.965183 -0.102902 3.92158e-09 -1.03127e-07 -1.79386e-09 -10.2786 0.731801 -0.0259123 3.92159e-09 -1.03127e-07 -1.79386e-09 -2.22167 -0.733487 0.20892 -2.03217e-16 0.0 -3.88251e-19 -44.9 -27.4432 -6.98903 2.67953 81.4767 9.27409 9.78853 -8.34876 -2.01701 2.03217e-16 0.0 3.88251e-19 60.216 -33.2798 29.4265 -3.53239 81.7752 -9.34095 -11.9256 3.57464 0.494451
38.7894 20.5601 34.7819 186.789 -9.9113 145.521 -22.1742 50.2129 21.4693 -5.539 0.274527 -1.13623 -10.0373 7.63122 -9.83426 22.3879 -37.4317 -13.3284 -0.0 0.0 0.0 -0.0 0.0 0.0 -1.33706e-13 2.39611e-13 -3.17851e-13 41.5248 35.5335 32.6862 -25.1554 -21.434 53.4983 -0.294156 15.2557 2.19671 -2.10926e-09 -1.00153e-08 1.95248e-09 -3.62427e-09 -1.73304e-08 3.40278e-09 -2.10925e-09 -1.00153e-08 1.95247e-09 7.73091 5.47488 0.417314 -2.10926e-09 -1.00153e-08 1.95248e-09 2.90554 0.965183 0.102902 -2.10926e-09 -1.00154e-08 1.95247e-09 10.2786 0.731801 0.0259123 -2.10927e-09 -1.00153e-08 1.95248e-09 2.22167 -0.733487 -0.20892 -1.33768e-13 2.39659e-13 -3.17975e-13 -15.9355 31.4952 -38.4626 27.9029 -30.0636 -67.3529 0.0964809 8.84944 -1.25371 1.10593e-09 -2.36238e-08 2.71976e-10 1.91643e-09 -4.10587e-08 4.68648e-10 1.10593e-09 -2.36238e-08 2.71984e-10 -7.73091 5.47488 -0.417314 1.10593e-09 -2.36237e-08 2.71977e-10 -2.90554 0.965183 -0.102902 1.10593e-09 -2.36237e-08 2.71975e-10 -10.2786 0.731801 -0.0259123 1.10594e-09 -2.36237e-08 2.71969e-10 -2.22167 -0.733487 0.20892 -2.03217e-16 0.0 -3.88251e-19 -44.3813 -27.6863 -7.11406 2.48286 81.2145 9.26899 9.74815 -8.76264 -2.19483 2.03217e-16 0.0 3.88251e-19 61.0514 -33.5836 29.8853 -3.71002 82.0374 -9.27191 -11.9752 3.76426 0.311767
38.9005 20.3799 34.7875 186.934 -9.8538 145.812 -21.7226 50.0114 21.2787 -5.74301 0.5906 -1.11395 -10.2211 7.09089 -10.0171 22.4196 -36.9089 -13.6793 -0.0 0.0 0.0 -0.0 0.0 0.0 3.12071e-14 1.99536e-13 -6.0041e-13 41.1925 35.4258 33.057 -25.0686 -21.2445 53.1882 -0.300426 15.4116 2.2203 -3.05686e-09 -1.47946e-08 2.98364e-09 -5.24679e-09 -2.55836e-08 5.19704e-09 -3.05685e-09 -1.47946e-08 2.98363e-09 7.73091 5.47488 0.417314 -3.05686e-09 -1.47946e-08 2.98364e-09 2.90554 0.965183 0.102902 -3.05686e-09 -1.47946e-08 2.98364e-09 10.2786 0.731801 0.0259123 -3.05687e-09 -1.47946e-08 2.98364e-09 2.22167 -0.733487 -0.20892 3.11935e-14 1.99599e-13 -6.00539e-13 -15.8122 31.3092 -38.4303 27.9086 -30.0935 -67.3993 0.105923 9.25763 -1.31257 -1.93934e-09 6.12398e-08 2.39252e-09 -3.33056e-09 1.04508e-07 4.1594e-09 -1.93935e-09 6.12398e-08 2.39253e-09 -7.73091 5.47488 -0.417314 -1.93934e-09 6.12398e-08 2.39252e-09 -2.90554 0.965183 -0.102902 -1.93935e-09 6.12398e-08 2.39252e-09 -10.2786 0.731801 -0.0259123 -1.93933e-09 6.12398e-08 2.39251e-09 -2.22167 -0.733487 0.20892 -2.03217e-16 0.0 -3.88251e-19 -43.8911 -27.934 -7.22927 2.31357 80.9969 9.25584 9.71611 -9.18111 -2.40014 2.03217e-16 0.0 3.88251e-19 61.9102 -33.8784 30.3279 -3.90461 82.318 -9.19228 -12.0124 3.90295 0.0617884
39.0152 20.2738 34.7696 187.114 -9.8092 145.903 -21.2993 49.8684 21.0936 -5.92916 0.780844 -1.09199 -10.366 6.72915 -10.1578 22.4704 -36.5513 -13.94 -0.0 0.0 0.0 -0.0 0.0 0.0 1.23221e-13 1.51045e-13 -7.4743e-13 40.9526 35.3534 33.3 -25.0086 -21.1144 52.9798 -0.303349 15.4832 2.23114 -3.259e-09 -1.63489e-08 3.42412e-09 -5.58926e-09 -2.826e-08 5.96113e-09 -3.25899e-09 -1.63489e-08 3.42412e-09 7.73091 5.47488 0.417314 -3.259e-09 -1.63489e-08 3.42412e-09 2.90554 0.965183 0.102902 -3.259e-09 -1.63489e-08 3.42412e-09 10.2786 0.731801 0.0259123 -3.25901e-09 -1.63489e-08 3.42413e-09 2.22167 -0.733487 -0.20892 1.2323e-13 1.51108e-13 -7.47579e-13 -15.7905 31.1774 -38.4024 27.9168 -30.1377 -67.4685 0.113018 9.54322 -1.35388 -3.89143e-09 1.14198e-07 3.65769e-09 -6.69496e-09 1.95375e-07 6.36192e-09 -3.89144e-09 1.14198e-07 3.6577e-09 -7.73091 5.47488 -0.417314 -3.89143e-09 1.14198e-07 3.65769e-09 -2.90554 0.965184 -0.102902 -3.89144e-09 1.14198e-07 3.65769e-09 -10.2786 0.731801 -0.0259123 -3.89142e-09 1.14198e-07 3.65768e-09 -2.22167 -0.733486 0.20892 -2.03217e-16 0.0 -3.88251e-19 -43.5291 -28.1308 -7.32737 2.19601 80.8474 9.24801 9.7027 -9.48158 -2.63365 2.03217e-16 0.0 3.88251e-19 62.6247 -34.1124 30.7071 -4.0689 82.5445 -9.12127 -12.0403 3.9959 -0.136418
39.0877 20.2111 34.7142 187.231 -9.7888 145.867 -20.8693 49.7763 20.8893 -6.11374 0.785011 -1.06361 -10.4497 6.62672 -10.2438 22.5381 -36.383 -14.0907 -0.0 0.0 0.0 -0.0 0.0 0.0 1.03389e-13 7.62491e-14 -6.86936e-13 40.8738 35.3465 33.3369 -24.9846 -21.0625 52.8985 -0.302179 15.4531 2.2266 -2.12673e-09 -1.23868e-08 2.90951e-09 -3.63871e-09 -2.13937e-08 5.05805e-09 -2.12672e-09 -1.23869e-08 2.90951e-09 7.73091 5.47488 0.417314 -2.12673e-09 -1.23869e-08 2.90951e-09 2.90554 0.965183 0.102902 -2.12672e-09 -1.23869e-08 2.90951e-09 10.2786 0.731801 0.0259123 -2.12674e-09 -1.23869e-08 2.90952e-09 2.22167 -0.733487 -0.20892 1.03381e-13 7.62934e-14 -6.8714e-13 -15.9124 31.1283 -38.4075 27.9256 -30.1871 -67.5492 0.116974 9.69668 -1.37611 -4.33869e-09 1.22757e-07 3.68638e-09 -7.46844e-09 2.1014e-07 6.41351e-09 -4.3387e-09 1.22757e-07 3.6864e-09 -7.73091 5.47488 -0.417314 -4.33869e-09 1.22757e-07 3.68639e-09 -2.90554 0.965184 -0.102902 -4.3387e-09 1.22757e-07 3.68638e-09 -10.2786 0.731801 -0.0259123 -4.33868e-09 1.22757e-07 3.68638e-09 -2.22167 -0.733486 0.20892 -2.03217e-16 0.0 -3.88251e-19 -43.3232 -28.2679 -7.4068 2.14913 80.7862 9.24773 9.72065 -9.6152 -2.94239 2.03217e-16 0.0 3.88251e-19 63.18 -34.2645 31.0286 -4.19008 82.6983 -9.06597 -12.0512 4.03093 -0.291575
39.1165 20.1322 34.6601 187.324 -9.7531 146.081 -20.4053 49.7103 20.6581 -6.29705 0.694093 -1.03143 -10.4969 6.66809 -10.3023 22.6078 -36.3055 -14.189 -0.0 0.0 0.0 -0.0 0.0 0.0 1.80989e-14 -2.47544e-14 -4.98251e-13 40.9071 35.3585 33.2471 -24.9864 -21.0664 52.9053 -0.298647 15.3636 2.21308 -3.6923e-11 -4.59209e-09 1.77329e-09 -4.17146e-11 -7.89431e-09 3.06885e-09 -3.69179e-11 -4.59211e-09 1.77328e-09 7.73091 5.47488 0.417314 -3.69256e-11 -4.59211e-09 1.77329e-09 2.90554 0.965183 0.102902 -3.69154e-11 -4.5921e-09 1.77329e-09 10.2786 0.731801 0.0259123 -3.69319e-11 -4.5921e-09 1.77329e-09 2.22167 -0.733487 -0.20892 1.805e-14 -2.47431e-14 -4.98536e-13 -16.1315 31.1066 -38.4448 27.9339 -30.2346 -67.6283 0.1193 9.7857 -1.38902 -4.00625e-09 1.07644e-07 3.01013e-09 -6.90011e-09 1.84352e-07 5.23909e-09 -4.00626e-09 1.07644e-07 3.01014e-09 -7.73091 5.47488 -0.417314 -4.00625e-09 1.07644e-07 3.01013e-09 -2.90554 0.965184 -0.102902 -4.00626e-09 1.07644e-07 3.01013e-09 -10.2786 0.731801 -0.0259123 -4.00624e-09 1.07644e-07 3.01012e-09 -2.22167 -0.733486 0.20892 -2.03217e-16 0.0 -3.88251e-19 -43.2192 -28.373 -7.47101 2.1559 80.796 9.24807 9.76261 -9.65257 -3.31007 2.03217e-16 0.0 3.88251e-19 63.6526 -34.3664 31.3097 -4.29151 82.818 -9.01728 -12.0471 4.00979 -0.453637
39.1622 20.0448 34.6448 187.45 -9.6898 146.438 -20.0036 49.7063 20.458 -6.44165 0.575395 -1.00856 -10.5334 6.7573 -10.3399 22.6819 -36.3382 -14.2426 -0.0 0.0 0.0 -0.0 0.0 0.0 -7.98107e-14 -1.11793e-13 -2.83825e-13 40.9326 35.3579 33.1488 -25.0051 -21.1067 52.9694 -0.293003 15.2219 2.19165 1.96795e-09 3.14274e-09 5.85283e-10 3.4075e-09 5.49715e-09 9.90982e-10 1.96795e-09 3.14273e-09 5.85275e-10 7.73091 5.47488 0.417314 1.96794e-09 3.14273e-09 5.85279e-10 2.90554 0.965183 0.102902 1.96796e-09 3.14273e-09 5.8528e-10 10.2786 0.731801 0.0259123 1.96794e-09 3.14273e-09 5.85281e-10 2.22167 -0.733487 -0.20892 -7.99055e-14 -1.11816e-13 -2.84186e-13 -16.3884 31.09 -38.45 27.9465 -30.3055 -67.7418 0.11912 9.781 -1.38833 -3.27647e-09 8.14253e-08 2.08774e-09 -5.64688e-09 1.39503e-07 3.6361e-09 -3.27647e-09 8.14253e-08 2.08775e-09 -7.73091 5.47488 -0.417314 -3.27647e-09 8.14253e-08 2.08774e-09 -2.90554 0.965183 -0.102902 -3.27648e-09 8.14254e-08 2.08775e-09 -10.2786 0.731801 -0.0259123 -3.27646e-09 8.14253e-08 2.08774e-09 -2.22167 -0.733486 0.20892 -2.03217e-16 0.0 -3.88251e-19 -43.1932 -28.4452 -7.51992 2.1876 80.8446 9.24789 9.80991 -9.65059 -3.64215 2.03217e-16 0.0 3.88251e-19 64.0104 -34.4463 31.5184 -4.3766 82.9161 -8.97359 -12.0463 3.95868 -0.565357
